<svg width="445" height="113" viewBox="0 0 445 113" fill="none" xmlns="http://www.w3.org/2000/svg">
<path d="M187.984 38.353C187.984 43.9029 186.527 48.9825 183.614 53.5917C180.701 58.201 176.848 61.7285 172.055 64.1742L187.984 108.197H169.8L154.998 67.4194H118.488V50.2053H159.086C162.375 50.2053 165.148 49.0766 167.403 46.819C169.753 44.4673 170.927 41.6924 170.927 38.4941C170.927 35.2018 169.753 32.3798 167.403 30.0282C165.148 27.6765 162.375 26.5007 159.086 26.5007H118.488V9.42768H159.086C167.074 9.42768 173.888 12.2497 179.526 17.8936C185.165 23.5376 187.984 30.3574 187.984 38.353Z" fill="#85D22C"/>
<path d="M271.683 108.197H202.186V91.1241H271.683V108.197ZM271.683 26.5007H202.186V9.42768H271.683V26.5007ZM259.982 67.4194H202.186V50.2053H259.982V67.4194Z" fill="#85D22C"/>
<path d="M355.381 108.197H285.885V91.1241H355.381V108.197ZM355.381 26.5007H285.885V9.42768H355.381V26.5007ZM343.681 67.4194H285.885V50.2053H343.681V67.4194Z" fill="#85D22C"/>
<path d="M427.943 9.42768H445V108.197H427.943L369.583 9.42768H389.46L427.943 74.6155V9.42768Z" fill="#85D22C"/>
<path d="M93.3767 65.9354C94.914 76.1453 90.9436 84.1105 83.9027 90.7723C69.6023 104.302 48.0181 105.985 31.3329 95.1579C10.3491 81.541 5.05973 54.5973 17.4333 34.9034C27.3808 19.0709 41.997 12.3548 60.4914 13.7313C62.2608 13.863 64.0348 14.2846 65.7441 14.785C67.8744 15.4087 68.9605 14.5846 69.5774 12.6199C70.0882 10.993 70.6358 9.36479 71.3364 7.81356C72.2241 5.84807 71.4435 4.97289 69.5794 4.48413C63.5444 2.90173 57.4245 2.26647 51.2047 2.79552C26.151 4.92661 6.12366 22.3783 1.16743 47.0004C-1.92751 62.3759 1.13755 76.7317 10.2874 89.6391C18.4449 101.147 29.4434 108.57 43.1592 111.661C66.2418 116.863 90.231 106.591 100.751 86.3945C104.327 79.5305 105.316 72.1723 104.204 64.5991C101.717 47.6599 86.5893 39.9627 71.2178 47.6232C63.9969 51.2218 57.8402 56.1732 51.8866 61.7763C52.4323 60.606 52.8951 59.3882 53.5369 58.2732C58.1742 50.2176 64.8864 44.5755 73.5534 41.2351C74.5401 40.8549 75.5278 40.4769 76.5171 40.1035C77.7502 39.638 78.0321 38.8898 77.0762 37.914C67.8525 28.4983 52.001 29.4106 45.7117 41.4092C43.8676 44.9273 42.5744 48.7593 40.5128 52.1325C36.0629 59.4136 29.1052 62.4282 20.7881 62.7231C20.3012 62.7403 19.8082 62.6629 19.3253 62.7075C17.2896 62.8955 16.6187 64.0709 17.9106 65.6189C19.409 67.4145 21.0719 69.1592 22.9479 70.5402C35.9814 80.1346 57.0988 83.032 72.3386 72.8014C77.8145 69.1254 82.1894 64.5644 83.7855 57.9028C84.2532 55.9509 85.4105 55.6473 87.0697 56.4165C91.0418 58.258 92.5192 61.78 93.3767 65.9354Z" fill="#85D22C"/>
<path d="M95.2665 29.9247C96.4605 30.3092 97.5059 30.9641 98.463 30.8542C99.5105 30.7339 101.005 30.1191 101.324 29.3261C101.621 28.587 100.911 26.8151 100.151 26.3998C97.9609 25.2031 95.5262 24.4493 93.1785 23.5452C90.4181 22.4822 90.2616 22.1614 91.2532 19.444C93.5259 13.2164 92.781 13.8809 98.5701 16.0257C100.018 16.562 101.466 17.3332 102.954 17.4429C104.003 17.5202 105.567 16.9597 106.106 16.1534C106.984 14.8388 106.219 13.4377 104.737 12.808C102.419 11.8236 100.06 10.9311 97.6857 10.0915C96.3379 9.61477 95.6484 8.92455 95.3366 7.38966C95.1233 6.33967 94.0342 5.07935 93.0227 4.64778C89.2901 3.05514 85.4518 1.69493 81.6043 0.391562C78.9287 -0.514806 77.6467 0.10414 76.6513 2.75423C74.4244 8.68294 72.2588 14.6357 70.1592 20.6106C69.2439 23.2155 69.801 24.3596 72.3743 25.3746C75.7 26.6864 79.049 27.9536 82.4461 29.0621C83.4396 29.3863 84.9241 29.5347 85.6784 29.022C88.2416 27.2798 90.5879 27.9014 93.0364 29.0577C93.6961 29.3692 94.397 29.5936 95.2665 29.9247Z" fill="#85D22C"/>
<path d="M371.57 95.4041H375.432V103.475H379.605V97.4359H383.354V103.475H391.361V108.301H371.57V95.4041Z" fill="#85D22C"/>
<path d="M387.64 88.0422V81.721H391.361V92.8678H371.57V88.0422H387.64Z" fill="#85D22C"/>
<path d="M391.559 70.0503C391.559 71.9128 391.126 73.6248 390.262 75.1863C389.397 76.729 388.194 77.9613 386.653 78.8831C385.093 79.7861 383.345 80.2377 381.409 80.2377C379.473 80.2377 377.734 79.7861 376.193 78.8831C374.652 77.9613 373.449 76.729 372.584 75.1863C371.72 73.6248 371.288 71.9128 371.288 70.0503C371.288 68.1878 371.72 66.4852 372.584 64.9425C373.449 63.381 374.652 62.1581 376.193 61.2739C377.734 60.3709 379.473 59.9194 381.409 59.9194C383.345 59.9194 385.093 60.3709 386.653 61.2739C388.194 62.177 389.397 63.3998 390.262 64.9425C391.126 66.4852 391.559 68.1878 391.559 70.0503ZM387.16 70.0503C387.16 68.47 386.634 67.2095 385.582 66.2688C384.529 65.3094 383.138 64.8296 381.409 64.8296C379.661 64.8296 378.27 65.3094 377.236 66.2688C376.184 67.2095 375.658 68.47 375.658 70.0503C375.658 71.6494 376.174 72.9287 377.208 73.8882C378.242 74.8288 379.642 75.2992 381.409 75.2992C383.157 75.2992 384.557 74.8288 385.61 73.8882C386.643 72.9287 387.16 71.6494 387.16 70.0503Z" fill="#85D22C"/>
<path d="M371.57 29.9744L391.361 35.1386V40.9801L378.336 44.1407L391.361 47.4142V53.2557L371.57 58.2789V53.1146L385.976 50.2644L371.57 46.737V41.4316L385.976 38.0452L371.57 35.1668V29.9744Z" fill="#85D22C"/>
</svg>
